<svg width="1111" height="276" viewBox="0 0 1111 276" fill="none" xmlns="http://www.w3.org/2000/svg">
    <path d="M28.3164 233.976V233.821C19.6433 228.342 12.4981 220.757 7.54687 211.773C2.5956 202.788 -0.000667758 192.696 1.28827e-07 182.438L1.28827e-07 60.8063C1.28827e-07 44.6795 6.40636 29.2132 17.8097 17.8098C29.2131 6.40642 44.6795 5.80617e-05 60.8063 5.80617e-05H182.438C195.728 -0.0183427 208.656 4.33737 219.226 12.3952L219.492 12.3046L260.942 41.3801L244.493 47.3246L241.67 47.1249C242.7 51.6195 243.218 56.2164 243.214 60.8277V182.438C243.215 198.567 236.809 214.036 225.404 225.441C214 236.847 198.532 243.256 182.403 243.257H66.7721L70.1599 262.886L28.3164 233.976Z" fill="#9C10FF"/>
    <path d="M229.216 262.3H107.59C95.0994 262.286 83.1242 257.318 74.292 248.485C65.4599 239.652 60.4922 227.677 60.4788 215.186V93.56C60.4929 81.0696 65.4609 69.0948 74.293 60.2627C83.125 51.4306 95.0998 46.4626 107.59 46.4485H229.216C241.707 46.4619 253.682 51.4296 262.515 60.2618C271.348 69.0939 276.316 81.0691 276.33 93.56V215.186C276.317 227.677 271.349 239.653 262.516 248.486C253.683 257.319 241.707 262.287 229.216 262.3Z" fill="white"/>
    <path d="M229.213 248.597C238.073 248.588 246.566 245.065 252.831 238.8C259.095 232.536 262.618 224.042 262.627 215.183V93.5599C262.618 84.7012 259.094 76.2082 252.83 69.9444C246.565 63.6807 238.072 60.1577 229.213 60.1485H107.59C98.7319 60.1584 90.2394 63.6817 83.9757 69.9454C77.7119 76.2091 74.1887 84.7017 74.1788 93.5599V215.183C74.188 224.042 77.7109 232.535 83.9747 238.799C90.2385 245.064 98.7315 248.587 107.59 248.597H229.213ZM229.213 276H107.59C91.461 275.999 75.9926 269.592 64.5878 258.186C53.183 246.781 46.7759 231.312 46.7759 215.183L46.7759 93.5599C46.7755 85.5735 48.3483 77.6653 51.4044 70.2869C54.4605 62.9084 58.94 56.2041 64.5872 50.5569C70.2344 44.9097 76.9386 40.4302 84.3171 37.3741C91.6956 34.318 99.6038 32.7453 107.59 32.7456H229.213C245.343 32.7456 260.811 39.1527 272.217 50.5575C283.622 61.9623 290.03 77.4307 290.03 93.5599V215.183C290.03 231.313 283.622 246.781 272.217 258.186C260.811 269.592 245.343 275.999 229.213 276Z" fill="#9C10FF"/>
    <path d="M123.661 98.844H145.044C148.817 98.851 152.432 100.355 155.097 103.024C157.762 105.694 159.259 109.312 159.259 113.085V134.469C159.251 138.236 157.752 141.848 155.088 144.512C152.423 147.176 148.812 148.676 145.044 148.683H123.661C119.888 148.683 116.27 147.186 113.6 144.521C110.93 141.856 109.427 138.241 109.42 134.469V113.085C109.42 109.308 110.92 105.686 113.591 103.015C116.261 100.344 119.884 98.844 123.661 98.844V98.844Z" fill="#9C10FF"/>
    <path d="M123.661 170.037H145.044C148.817 170.044 152.432 171.548 155.097 174.218C157.762 176.887 159.259 180.506 159.259 184.278V205.662C159.251 209.429 157.752 213.041 155.088 215.705C152.423 218.369 148.812 219.869 145.044 219.876H123.661C119.888 219.876 116.27 218.379 113.6 215.714C110.93 213.049 109.427 209.434 109.42 205.662V184.278C109.42 180.501 110.92 176.879 113.591 174.208C116.261 171.537 119.884 170.037 123.661 170.037V170.037Z" fill="#9C10FF"/>
    <path d="M201.971 98.844H223.354C227.127 98.851 230.742 100.355 233.407 103.024C236.072 105.694 237.568 109.312 237.568 113.085V134.469C237.561 138.236 236.062 141.848 233.397 144.512C230.733 147.176 227.122 148.676 223.354 148.683H201.971C198.198 148.683 194.58 147.186 191.91 144.521C189.24 141.856 187.737 138.241 187.73 134.469V113.085C187.73 109.308 189.23 105.686 191.901 103.015C194.571 100.344 198.194 98.844 201.971 98.844V98.844Z" fill="#9C10FF"/>
    <path d="M201.971 170.037H223.354C227.127 170.044 230.742 171.548 233.407 174.218C236.072 176.887 237.568 180.506 237.568 184.278V205.662C237.561 209.429 236.062 213.041 233.397 215.705C230.733 218.369 227.122 219.869 223.354 219.876H201.971C198.198 219.876 194.58 218.379 191.91 215.714C189.24 213.049 187.737 209.434 187.73 205.662V184.278C187.73 180.501 189.23 176.879 191.901 174.208C194.571 171.537 198.194 170.037 201.971 170.037V170.037Z" fill="#9C10FF"/>
    <path d="M1003.84 247V106.915H1028.68V117.407C1036.67 108.758 1047.42 104.379 1060.71 104.379C1067.39 104.313 1074.01 105.658 1080.14 108.326C1086.27 110.994 1091.77 114.925 1096.28 119.863C1101.08 124.859 1104.85 130.755 1107.38 137.214C1109.9 143.674 1111.13 150.569 1110.99 157.505C1111.14 164.457 1109.92 171.37 1107.39 177.845C1104.86 184.32 1101.08 190.229 1096.26 195.23C1091.73 200.142 1086.23 204.049 1080.11 206.698C1073.98 209.347 1067.37 210.68 1060.7 210.61C1047.41 210.61 1036.66 206.283 1028.67 197.737V247H1003.84ZM1036.87 136.594C1034.15 139.334 1032.02 142.603 1030.62 146.199C1029.21 149.795 1028.55 153.642 1028.69 157.503C1028.56 161.363 1029.21 165.21 1030.62 168.806C1032.02 172.402 1034.15 175.671 1036.87 178.411C1042.4 183.72 1049.76 186.684 1057.42 186.684C1065.08 186.684 1072.44 183.72 1077.98 178.411C1080.69 175.671 1082.82 172.401 1084.22 168.805C1085.63 165.209 1086.28 161.362 1086.15 157.503C1086.28 153.643 1085.63 149.796 1084.22 146.2C1082.82 142.604 1080.69 139.334 1077.98 136.594C1072.45 131.281 1065.08 128.315 1057.42 128.315C1049.76 128.315 1042.4 131.281 1036.87 136.594ZM901.887 199.315C894.695 191.84 891.055 181.503 891.055 168.587V106.918H915.896V166.451C915.706 169.232 916.073 172.024 916.976 174.66C917.878 177.297 919.298 179.726 921.151 181.804C923.089 183.631 925.38 185.04 927.882 185.946C930.383 186.852 933.044 187.235 935.699 187.072C938.732 187.22 941.762 186.734 944.598 185.646C947.433 184.557 950.012 182.889 952.17 180.747C956.306 176.537 958.41 169.898 958.41 160.992V106.915H983.252V208.095H958.41V199.472C951.73 206.875 942.288 210.623 930.263 210.623C925.008 210.821 919.771 209.917 914.884 207.97C909.998 206.023 905.571 203.075 901.887 199.315ZM606.875 204.315C599.862 200.298 594.338 194.11 591.131 186.679L590.434 185.077L612.007 172.53L612.806 174.722C615.888 183.281 622.339 187.448 632.516 187.448C645.566 187.448 647.071 182.336 647.071 178.489C646.983 177.199 646.53 175.96 645.763 174.92C644.997 173.879 643.95 173.08 642.746 172.616C638.751 170.509 634.558 168.804 630.228 167.525C625.212 165.978 620.069 164.394 614.799 162.773C609.272 161.097 604.352 157.842 600.642 153.407C596.687 148.53 594.629 142.382 594.85 136.1C594.73 131.658 595.656 127.251 597.553 123.235C599.451 119.219 602.265 115.708 605.77 112.986C613.356 107.122 622.74 104.081 632.316 104.385C640.143 104.263 647.866 106.196 654.718 109.991C661.196 113.628 666.483 119.071 669.937 125.659L670.824 127.341L649.671 139.226L648.789 137.299C645.742 130.603 640.354 127.346 632.311 127.346C629.136 127.23 625.994 128.025 623.255 129.637C622.232 130.24 621.395 131.114 620.836 132.163C620.276 133.212 620.016 134.395 620.083 135.582C620.083 137.136 620.53 139.434 624.408 141.455C628.453 143.477 632.667 145.142 637.001 146.429L652.43 151.2C658.015 152.909 662.948 156.283 666.573 160.872C670.497 165.974 672.521 172.288 672.297 178.726C672.456 183.302 671.484 187.846 669.468 191.955C667.451 196.063 664.453 199.609 660.74 202.275C652.483 208.057 642.574 210.99 632.508 210.631C623.554 210.861 614.702 208.68 606.875 204.315ZM484.935 195.126C480.136 190.132 476.367 184.238 473.844 177.781C471.322 171.325 470.094 164.433 470.233 157.5C470.076 150.548 471.295 143.634 473.82 137.158C476.345 130.681 480.125 124.77 484.943 119.767C489.468 114.853 494.971 110.944 501.096 108.294C507.222 105.643 513.834 104.31 520.505 104.379C533.79 104.379 544.537 108.707 552.53 117.26V106.915H577.38V208.095H552.53V197.603C544.54 206.248 533.788 210.623 520.505 210.623C513.823 210.688 507.202 209.341 501.074 206.671C494.945 204.001 489.447 200.067 484.935 195.126ZM503.252 136.591C500.535 139.331 498.408 142.6 497.002 146.197C495.596 149.793 494.94 153.64 495.075 157.5C494.94 161.36 495.597 165.207 497.003 168.803C498.409 172.399 500.536 175.668 503.252 178.409C505.916 181.143 509.12 183.29 512.658 184.715C516.196 186.14 519.992 186.811 523.803 186.685C527.615 186.81 531.411 186.14 534.951 184.715C538.49 183.29 541.695 181.142 544.362 178.409C547.076 175.668 549.201 172.398 550.606 168.802C552.011 165.206 552.666 161.36 552.53 157.5C552.667 153.64 552.012 149.794 550.607 146.197C549.202 142.601 547.077 139.332 544.362 136.591C541.695 133.858 538.49 131.711 534.951 130.286C531.411 128.861 527.615 128.19 523.803 128.315C519.992 128.19 516.196 128.86 512.658 130.285C509.12 131.71 505.916 133.858 503.252 136.591ZM821.758 208.085V152.574L772.977 68H802.914L834.979 126.198L866.809 68H896.752L847.963 152.574V208.085H821.758ZM747.512 208.085L710.533 166.361V208.085H685.691V68H710.533V146.875L745.368 106.915H776.226L731.776 156.526L777.763 208.085H747.512ZM417.433 208.085V93.2896H379V68H481.875V93.2923H443.639V208.087L417.433 208.085Z" fill="white"/>
</svg>
