<svg width="145" height="36" viewBox="0 0 145 36" fill="none" xmlns="http://www.w3.org/2000/svg">
    <path d="M3.69345 30.5185V30.4984C2.56216 29.7838 1.63019 28.7944 0.984374 27.6225C0.338556 26.4506 -8.70988e-05 25.1343 1.68035e-08 23.7962L1.68035e-08 7.93126C1.68035e-08 5.82776 0.835612 3.81042 2.32301 2.32302C3.81041 0.835619 5.82775 7.57327e-06 7.93125 7.57327e-06H23.7962C25.5298 -0.00239253 27.216 0.565743 28.5947 1.61676L28.6294 1.60495L34.0358 5.3974L31.8904 6.17277L31.5221 6.14672C31.6565 6.73298 31.7241 7.33257 31.7236 7.93404V23.7962C31.7237 25.9 30.8881 27.9177 29.4006 29.4054C27.913 30.8931 25.8955 31.729 23.7917 31.7292H8.7094L9.15128 34.2894L3.69345 30.5185Z" fill="#9C10FF"/>
    <path d="M29.8979 34.2126H14.0336C12.4044 34.2108 10.8424 33.5627 9.6904 32.4107C8.53838 31.2586 7.89042 29.6966 7.88867 28.0673V12.2031C7.89051 10.5739 8.53852 9.01197 9.69052 7.85996C10.8425 6.70795 12.4045 6.05994 14.0336 6.05811H29.8979C31.5271 6.05985 33.0891 6.70782 34.2412 7.85984C35.3933 9.01185 36.0414 10.5738 36.0432 12.2031V28.0673C36.0415 29.6966 35.3934 31.2587 34.2414 32.4108C33.0893 33.5629 31.5272 34.2109 29.8979 34.2126V34.2126Z" fill="white"/>
    <path d="M29.8974 32.4255C31.0529 32.4243 32.1608 31.9648 32.9779 31.1477C33.795 30.3306 34.2545 29.2227 34.2557 28.0672V12.2033C34.2544 11.0478 33.7948 9.94003 32.9778 9.12302C32.1607 8.306 31.0529 7.84648 29.8974 7.84529H14.0335C12.8781 7.84657 11.7703 8.30613 10.9533 9.12314C10.1363 9.94014 9.67678 11.0479 9.67549 12.2033V28.0672C9.67668 29.2227 10.1362 30.3305 10.9532 31.1476C11.7702 31.9646 12.878 32.4242 14.0335 32.4255H29.8974ZM29.8974 35.9998H14.0335C11.9297 35.9997 9.91207 35.1639 8.42449 33.6763C6.93691 32.1886 6.1012 30.171 6.1012 28.0672L6.1012 12.2033C6.10115 11.1616 6.30629 10.1301 6.70491 9.16768C7.10353 8.20527 7.68782 7.3308 8.42441 6.59421C9.161 5.85762 10.0355 5.27333 10.9979 4.87471C11.9603 4.47609 12.9918 4.27095 14.0335 4.271H29.8974C32.0012 4.271 34.0188 5.10671 35.5065 6.59429C36.9941 8.08187 37.8299 10.0995 37.83 12.2033V28.0672C37.8299 30.171 36.9941 32.1887 35.5065 33.6763C34.0189 35.1639 32.0012 35.9997 29.8974 35.9998Z" fill="#9C10FF"/>
    <path d="M16.1297 12.8926H18.9189C19.4109 12.8935 19.8825 13.0896 20.2301 13.4379C20.5777 13.7861 20.7729 14.258 20.7729 14.7501V17.5393C20.772 18.0307 20.5764 18.5017 20.2289 18.8492C19.8814 19.1967 19.4103 19.3924 18.9189 19.3933H16.1297C15.6377 19.3933 15.1657 19.1981 14.8175 18.8505C14.4692 18.5029 14.2731 18.0313 14.2722 17.5393V14.7501C14.2722 14.2574 14.4679 13.785 14.8163 13.4366C15.1646 13.0883 15.6371 12.8926 16.1297 12.8926V12.8926Z" fill="#9C10FF"/>
    <path d="M16.1297 22.1787H18.9189C19.4109 22.1796 19.8825 22.3757 20.2301 22.724C20.5777 23.0722 20.7729 23.5442 20.7729 24.0362V26.8254C20.772 27.3168 20.5764 27.7879 20.2289 28.1354C19.8814 28.4829 19.4103 28.6785 18.9189 28.6794H16.1297C15.6377 28.6794 15.1657 28.4842 14.8175 28.1366C14.4692 27.789 14.2731 27.3174 14.2722 26.8254V24.0362C14.2722 23.5436 14.4679 23.0711 14.8163 22.7228C15.1646 22.3744 15.6371 22.1787 16.1297 22.1787V22.1787Z" fill="#9C10FF"/>
    <path d="M26.3439 12.8926H29.1331C29.6252 12.8935 30.0967 13.0896 30.4443 13.4379C30.7919 13.7861 30.9872 14.258 30.9872 14.7501V17.5393C30.9862 18.0307 30.7906 18.5017 30.4431 18.8492C30.0956 19.1967 29.6246 19.3924 29.1331 19.3933H26.3439C25.8519 19.3933 25.38 19.1981 25.0317 18.8505C24.6835 18.5029 24.4874 18.0313 24.4865 17.5393V14.7501C24.4865 14.2574 24.6821 13.785 25.0305 13.4366C25.3788 13.0883 25.8513 12.8926 26.3439 12.8926V12.8926Z" fill="#9C10FF"/>
    <path d="M26.3439 22.1787H29.1331C29.6252 22.1796 30.0967 22.3757 30.4443 22.724C30.7919 23.0722 30.9872 23.5442 30.9872 24.0362V26.8254C30.9862 27.3168 30.7906 27.7879 30.4431 28.1354C30.0956 28.4829 29.6246 28.6785 29.1331 28.6794H26.3439C25.8519 28.6794 25.38 28.4842 25.0317 28.1366C24.6835 27.789 24.4874 27.3174 24.4865 26.8254V24.0362C24.4865 23.5436 24.6821 23.0711 25.0305 22.7228C25.3788 22.3744 25.8513 22.1787 26.3439 22.1787V22.1787Z" fill="#9C10FF"/>
    <path d="M130.936 32.2174V13.9456H134.176V15.314C135.218 14.1858 136.621 13.6148 138.354 13.6148C139.225 13.6061 140.089 13.7815 140.888 14.1295C141.687 14.4775 142.404 14.9902 142.993 15.6344C143.619 16.286 144.111 17.0551 144.44 17.8976C144.77 18.7401 144.93 19.6395 144.911 20.5442C144.931 21.4509 144.772 22.3526 144.442 23.1972C144.113 24.0418 143.619 24.8125 142.991 25.4649C142.4 26.1056 141.682 26.6151 140.883 26.9606C140.084 27.3062 139.222 27.48 138.352 27.4709C136.618 27.4709 135.217 26.9065 134.174 25.7918V32.2174H130.936ZM135.243 17.8167C134.889 18.1741 134.612 18.6004 134.428 19.0695C134.245 19.5386 134.159 20.0404 134.177 20.5439C134.159 21.0474 134.245 21.5491 134.428 22.0182C134.612 22.4873 134.889 22.9137 135.243 23.2711C135.965 23.9636 136.926 24.3501 137.925 24.3501C138.924 24.3501 139.884 23.9636 140.606 23.2711C140.96 22.9136 141.237 22.4872 141.42 22.0181C141.603 21.549 141.689 21.0473 141.671 20.5439C141.689 20.0404 141.604 19.5387 141.42 19.0696C141.237 18.6005 140.96 18.1741 140.606 17.8167C139.884 17.1236 138.924 16.7367 137.925 16.7367C136.925 16.7367 135.965 17.1236 135.243 17.8167V17.8167ZM117.637 25.9976C116.699 25.0226 116.225 23.6743 116.225 21.9897V13.9459H119.465V21.7111C119.44 22.0739 119.488 22.4379 119.606 22.7818C119.723 23.1258 119.908 23.4426 120.15 23.7137C120.403 23.9519 120.702 24.1358 121.028 24.2539C121.354 24.3721 121.701 24.422 122.048 24.4007C122.443 24.4201 122.839 24.3567 123.208 24.2147C123.578 24.0727 123.915 23.8551 124.196 23.5758C124.736 23.0267 125.01 22.1606 125.01 20.999V13.9456H128.25V27.1429H125.01V26.0182C124.139 26.9838 122.907 27.4727 121.339 27.4727C120.653 27.4985 119.97 27.3806 119.333 27.1266C118.695 26.8726 118.118 26.4881 117.637 25.9976V25.9976ZM79.1576 26.6498C78.2429 26.1259 77.5223 25.3188 77.1041 24.3495L77.0131 24.1406L79.8271 22.504L79.9313 22.7899C80.3332 23.9062 81.1746 24.4498 82.5021 24.4498C84.2043 24.4498 84.4006 23.783 84.4006 23.2812C84.3891 23.1129 84.33 22.9514 84.23 22.8157C84.1301 22.68 83.9935 22.5757 83.8364 22.5151C83.3153 22.2404 82.7684 22.018 82.2036 21.8511C81.5494 21.6494 80.8785 21.4427 80.1911 21.2313C79.4702 21.0127 78.8286 20.5882 78.3447 20.0097C77.8288 19.3736 77.5603 18.5716 77.5891 17.7522C77.5735 17.1729 77.6943 16.598 77.9418 16.0742C78.1892 15.5504 78.5564 15.0924 79.0134 14.7374C80.003 13.9725 81.227 13.5759 82.476 13.6155C83.497 13.5996 84.5043 13.8517 85.398 14.3467C86.243 14.8211 86.9325 15.531 87.3831 16.3904L87.4988 16.6098L84.7397 18.16L84.6247 17.9086C84.2273 17.0353 83.5245 16.6104 82.4753 16.6104C82.0612 16.5953 81.6515 16.6989 81.2941 16.9092C81.1608 16.9879 81.0516 17.1019 80.9786 17.2387C80.9056 17.3755 80.8716 17.5298 80.8804 17.6847C80.8804 17.8874 80.9387 18.1872 81.4446 18.4508C81.9722 18.7145 82.5218 18.9316 83.0871 19.0995L85.0996 19.7217C85.8281 19.9447 86.4715 20.3848 86.9443 20.9833C87.4561 21.6488 87.7201 22.4725 87.6909 23.3122C87.7116 23.909 87.5849 24.5018 87.3219 25.0377C87.0589 25.5735 86.6678 26.036 86.1835 26.3838C85.1065 27.1379 83.814 27.5205 82.501 27.4737C81.3331 27.5036 80.1785 27.2191 79.1576 26.6498V26.6498ZM63.2524 25.4513C62.6265 24.7999 62.1349 24.0311 61.8058 23.1889C61.4768 22.3467 61.3167 21.4478 61.3348 20.5435C61.3143 19.6368 61.4733 18.735 61.8026 17.8902C62.1319 17.0454 62.6251 16.2744 63.2535 15.6219C63.8437 14.9809 64.5614 14.471 65.3604 14.1253C66.1594 13.7796 67.0218 13.6057 67.892 13.6148C69.6249 13.6148 71.0266 14.1792 72.0692 15.2949V13.9456H75.3105V27.1429H72.0692V25.7744C71.027 26.9019 69.6245 27.4727 67.892 27.4727C67.0204 27.4811 66.1569 27.3054 65.3575 26.9572C64.5581 26.6089 63.8409 26.0958 63.2524 25.4513V25.4513ZM65.6415 17.8163C65.2872 18.1737 65.0098 18.6001 64.8264 19.0692C64.6429 19.5382 64.5574 20.04 64.575 20.5435C64.5575 21.047 64.6431 21.5488 64.8265 22.0179C65.0099 22.4869 65.2873 22.9133 65.6415 23.2708C65.9891 23.6274 66.4069 23.9075 66.8684 24.0934C67.3299 24.2792 67.825 24.3667 68.3221 24.3502C68.8193 24.3666 69.3145 24.2791 69.7762 24.0933C70.2379 23.9075 70.6559 23.6273 71.0037 23.2708C71.3578 22.9133 71.635 22.4868 71.8182 22.0178C72.0015 21.5487 72.0869 21.047 72.0692 20.5435C72.087 20.0401 72.0016 19.5383 71.8184 19.0693C71.6351 18.6002 71.3578 18.1738 71.0037 17.8163C70.6559 17.4598 70.2378 17.1797 69.7762 16.9939C69.3145 16.808 68.8193 16.7205 68.3221 16.7369C67.825 16.7204 67.33 16.8079 66.8685 16.9938C66.407 17.1796 65.9891 17.4598 65.6415 17.8163ZM107.186 27.1415V19.9011L100.823 8.86963H104.728L108.91 16.4607L113.062 8.86963H116.968L110.604 19.9011V27.1415H107.186ZM97.5016 27.1415L92.6782 21.6993V27.1415H89.438V8.86963H92.6782V19.1576L97.2219 13.9456H101.247L95.4491 20.4164L101.447 27.1415H97.5016ZM54.4478 27.1415V12.1683H49.4348V8.86963H62.8533V12.1686H57.8659V27.1419L54.4478 27.1415Z" fill="black"/>
</svg>
